<?xml version="1.0" encoding="UTF-8"?>
<svg viewBox="0 0 32 32" version="1.1" xmlns="http://www.w3.org/2000/svg" xmlns:xlink="http://www.w3.org/1999/xlink">
    <title>Artboard</title>
    <g id="Artboard" stroke="none" stroke-width="1" fill="none" fill-rule="evenodd">
        <g id="favicon" transform="translate(9, 5)" fill="#000000" fill-rule="nonzero">
            <path d="M49.6617112,49.845292 C50.6701111,47.6156422 50.6592563,46.398341 49.3883894,45.666159 C48.1176445,44.9340988 45.3322264,43.697203 42.2201881,42.7474111 C39.1080279,41.7976192 34.6127937,40.7339107 31.8188381,41.2518905 C27.616196,42.0311726 24.9115182,44.1679609 23.0485152,47.160706 C21.1853902,50.1535727 20.8531598,52.8880581 21.336016,55.4005522 C21.8188722,57.9129246 23.6862659,60.1762869 26.6437756,61.8801678 C29.6012852,63.5840487 33.4671841,64.5031707 36.6745984,63.8751689 C39.8820126,63.2472888 41.4988919,62.0064984 43.0190535,60.3527603 C44.5392152,58.6989005 48.6533112,52.0750635 49.6617112,49.845292 Z M64.3829108,87.8386713 C63.1211913,90.2029278 60.6915426,90.2966412 56.514635,89.6715603 C52.3377274,89.0464795 47.9118909,87.3873863 43.2372475,84.6941592 C40.378041,83.0468715 38.651272,80.3311287 38.0571844,76.5468093 C37.7610554,74.4438552 37.2952741,73.2093935 36.6598407,72.8433025 C36.0506296,72.431937 34.6601158,72.325201 32.4880556,72.5230946 C25.2703368,73.0747869 18.6659759,71.624906 12.675095,68.1734518 C6.68425055,64.7219977 2.75728417,60.5271647 0.972850503,55.4532508 C-0.811595358,50.3793369 -0.141206994,45.0893953 2.9840034,39.5831826 C9.79686205,27.8080269 23.158161,25.6327795 43.0678392,33.0575622 C47.8179785,34.8883822 50.7288978,35.8710346 51.8008411,36.0055195 C55.0621635,36.4351409 57.7801355,34.7704493 59.9550009,31.0114447 C62.1298663,27.25244 62.7226123,24.2669973 61.9770452,21.633406 C61.2316001,18.9998147 59.7241227,17.0292764 57.454857,15.721913 C53.8694757,13.6562008 49.5173056,13.7001366 44.3984685,15.8535986 C39.2796315,18.0070607 35.4911798,18.3527051 31.7779801,16.4945012 C28.9431664,15.0758987 27.4332497,12.6219451 26.996496,10.709777 C26.5597422,8.79756014 27.2922591,6.67043525 28.0584382,5.36067418 C30.0273061,1.99466967 35.3914131,0.0258426109 39.7916371,0.000806102164 C48.9928595,-0.0489732165 57.226418,2.20609694 65.4650991,6.95262226 C70.9576344,10.1169725 75.5044594,13.8891457 78.1108341,17.5947215 C80.7172088,21.300419 82.0135662,25.4138308 81.999893,29.9348354 C81.9861242,34.4558399 78.4509922,42.8147144 71.6380726,54.5899917 C64.8252749,66.3651474 61.2757511,73.3628645 60.9896231,75.5832647 C60.7033732,77.8036649 61.4412565,79.9798859 63.2030292,82.1120494 C64.9648019,84.2442129 65.4153377,85.9039146 64.3829108,87.8386713 Z" id="Shape"></path>
        </g>
    </g>
</svg>
